<svg width="160" height="232" viewBox="0 0 160 232" fill="none" xmlns="http://www.w3.org/2000/svg">
<mask id="mask0_198_811" style="mask-type:luminance" maskUnits="userSpaceOnUse" x="0" y="0" width="99" height="49">
<path d="M0.000198364 48.4775H98.8237V-7.24792e-05H0.000198364V48.4775Z" fill="white"/>
</mask>
<g mask="url(#mask0_198_811)">
<path d="M47.6472 0.577148C57.8149 0.577148 66.6959 1.54786 73.2446 3.74551C79.7359 5.94316 84.791 8.95916 88.41 12.7912C92.029 16.6236 94.5567 21.0479 95.9928 26.0638C97.3714 31.136 98.0608 36.5465 98.0608 42.2956V124.551H80.6549V40.5192C80.6549 33.024 79.1614 27.3882 76.1742 23.6121C73.1297 19.836 69.1373 17.3 64.197 16.0036C59.2568 14.7638 53.3916 13.8508 47.6472 13.8508C41.7879 13.8508 37.083 14.7638 32.4875 16.0036C27.8344 17.3 24.158 19.836 21.4581 23.6121C18.7581 27.3882 17.4082 33.024 17.4082 40.5192V124.551H0.00244141V42.2956C0.00244141 36.6591 0.720443 31.3051 2.15656 26.2328C3.53527 21.2168 5.97668 16.7645 9.4808 12.8758C12.9849 8.98686 17.8677 5.94316 24.1293 3.74551C30.3907 1.54786 37.8816 0.577148 47.6472 0.577148Z" fill="white"/>
</g>
<path fill-rule="evenodd" clip-rule="evenodd" d="M49.4119 0.560235C49.0009 0.556542 48.5869 0.554688 48.1699 0.554688C38.4043 0.554688 30.3907 1.65352 24.1293 3.85117C17.8677 6.04882 12.9849 9.09252 9.4808 12.9815C5.97668 16.8702 3.53527 21.3225 2.15656 26.3384C0.720444 31.4108 0.00244141 36.7648 0.00244141 42.4003V124.656H17.4082V40.6251C17.4082 33.1297 18.7581 27.4938 21.4581 23.7178C24.158 19.9417 27.8344 17.4056 32.4875 16.1093C37.083 14.8694 42.3106 14.2495 48.1699 14.2495C48.586 14.2495 49 14.2527 49.4119 14.2592V0.560235Z" fill="white"/>
<mask id="mask1_198_811" style="mask-type:luminance" maskUnits="userSpaceOnUse" x="0" y="107" width="99" height="125">
<path d="M98.8235 107.343H0V232H98.8235V107.343Z" fill="white"/>
</mask>
<g mask="url(#mask1_198_811)">
<path d="M49.4798 232C39.3121 232 30.9538 230.901 24.4051 228.703C17.9138 226.506 12.8586 223.49 9.2396 219.658C5.62057 215.826 3.093 211.402 1.65688 206.385C0.278211 201.312 -0.411133 195.903 -0.411133 190.153V107.898H16.9948V191.929C16.9948 199.425 18.4883 205.06 21.4755 208.837C24.5199 212.612 28.5124 215.149 33.4526 216.446C38.3929 217.685 43.7354 218.305 49.4798 218.305C55.3391 218.305 60.5666 217.685 65.1622 216.446C69.8152 215.149 73.4916 212.612 76.1915 208.837C78.8915 205.06 80.2415 199.425 80.2415 191.929V107.898H97.6472V190.153C97.6472 195.789 96.9292 201.144 95.4931 206.216C94.1144 211.232 91.673 215.685 88.1689 219.574C84.6648 223.462 79.7819 226.506 73.5204 228.703C67.259 230.901 59.2454 232 49.4798 232Z" fill="white"/>
</g>
<path d="M48.0469 84.2589L54.2395 67.9601H56.273L62.4771 84.2589H60.1218L59.0073 81.0802H51.574L50.4482 84.2589H48.0469ZM52.1715 79.4123H58.4215L55.3195 70.564L52.1715 79.4123ZM65.9697 84.2589V67.9601H71.9899C73.5295 67.9601 74.6937 68.1367 75.4826 68.4899C76.2715 68.835 76.8038 69.3428 77.0796 70.0111C77.363 70.6806 77.5046 71.4885 77.5046 72.435C77.5046 73.1564 77.3476 73.7912 77.0336 74.3395C76.7196 74.8889 76.1757 75.2906 75.4022 75.5457C76.3749 75.7638 77.1025 76.2405 77.5851 76.9769C78.0676 77.7064 78.3089 78.5894 78.3089 79.6259C78.3089 81.2418 77.8455 82.4179 76.9188 83.1543C75.9919 83.8907 74.5175 84.2589 72.4955 84.2589H65.9697ZM68.2905 74.8693H72.5529C73.6022 74.8693 74.3031 74.6511 74.6553 74.216C75.0153 73.7728 75.1953 73.1864 75.1953 72.4569C75.1953 71.6686 75.0919 71.0742 74.8851 70.676C74.6861 70.2778 74.326 70.0111 73.8052 69.8761C73.292 69.733 72.5682 69.6626 71.6338 69.6626H68.2905V74.8693ZM68.2905 82.5795H72.3231C73.181 82.5795 73.8818 82.4964 74.4256 82.3314C74.9771 82.1663 75.383 81.8547 75.6435 81.3965C75.9038 80.9371 76.034 80.2653 76.034 79.3777C76.034 78.8825 75.9459 78.4093 75.7698 77.958C75.6013 77.4998 75.2911 77.1281 74.8392 76.8419C74.3873 76.5568 73.7363 76.4136 72.886 76.4136H68.2905V82.5795ZM88.7638 84.5071C87.3775 84.5071 86.2363 84.3674 85.3402 84.0904C84.4517 83.8123 83.7585 83.421 83.2606 82.9177C82.7628 82.4064 82.4143 81.8016 82.2151 81.1033C82.0159 80.4038 81.9164 79.6305 81.9164 78.781V73.6527C81.9164 72.7882 82.0122 71.9953 82.2036 71.2739C82.4028 70.5525 82.7512 69.9246 83.2491 69.3913C83.747 68.8581 84.4402 68.4448 85.3286 68.1517C86.2248 67.8585 87.3698 67.7119 88.7638 67.7119C90.1042 67.7119 91.2071 67.8666 92.0726 68.1736C92.9382 68.4818 93.6122 68.9146 94.0948 69.471C94.5772 70.0192 94.9143 70.661 95.1057 71.3974C95.3049 72.1338 95.4045 72.9348 95.4045 73.7993V78.6228C95.4045 79.4574 95.3049 80.2353 95.1057 80.9567C94.9143 81.67 94.5735 82.2944 94.0832 82.8277C93.6006 83.3529 92.9266 83.7672 92.0612 84.0673C91.1957 84.3605 90.0965 84.5071 88.7638 84.5071ZM88.7638 82.6811C89.7519 82.6811 90.5638 82.5865 91.1995 82.3995C91.8429 82.2033 92.3178 81.8501 92.6242 81.3399C92.9382 80.8286 93.0952 80.0922 93.0952 79.1307V73.2349C93.0952 72.2654 92.9382 71.5139 92.6242 70.9807C92.31 70.4474 91.8313 70.0758 91.1881 69.8645C90.5523 69.6464 89.7443 69.5379 88.7638 69.5379C87.7911 69.5379 86.9677 69.6464 86.2937 69.8645C85.6197 70.0758 85.1065 70.4474 84.7542 70.9807C84.4095 71.5139 84.2372 72.2654 84.2372 73.2349V79.1307C84.2372 80.0922 84.4095 80.8286 84.7542 81.3399C85.0989 81.8501 85.6082 82.2033 86.2822 82.3995C86.9563 82.5865 87.7835 82.6811 88.7638 82.6811ZM106.491 84.5071C105.136 84.5071 104.021 84.3605 103.148 84.0673C102.283 83.7742 101.609 83.3725 101.126 82.8612C100.643 82.3498 100.306 81.76 100.115 81.0917C99.9311 80.4154 99.8392 79.694 99.8392 78.9276V67.9601H102.16V79.1642C102.16 80.1637 102.359 80.9151 102.757 81.4184C103.163 81.9216 103.696 82.2598 104.354 82.4329C105.013 82.598 105.725 82.6811 106.491 82.6811C107.273 82.6811 107.97 82.598 108.582 82.4329C109.203 82.2598 109.693 81.9216 110.053 81.4184C110.413 80.9151 110.593 80.1637 110.593 79.1642V67.9601H112.914V78.9276C112.914 79.679 112.818 80.3923 112.626 81.0686C112.443 81.7381 112.117 82.3314 111.65 82.8496C111.183 83.369 110.532 83.7742 109.697 84.0673C108.862 84.3605 107.793 84.5071 106.491 84.5071ZM117.647 67.9601H119.957V75.1625H128.021V67.9601H130.331V84.2589H128.021V76.8303H119.957V84.2589H117.647V67.9601ZM138.522 84.2589V69.8195H133.732V67.9601H145.634V69.8195H140.832V84.2589H138.522Z" fill="white"/>
</svg>
